G04 #@! TF.GenerationSoftware,KiCad,Pcbnew,6.0.11+dfsg-1~bpo11+1*
G04 #@! TF.CreationDate,2023-03-27T12:03:20+01:00*
G04 #@! TF.ProjectId,dsixl_usb_c,64736978-6c5f-4757-9362-5f632e6b6963,rev?*
G04 #@! TF.SameCoordinates,Original*
G04 #@! TF.FileFunction,Legend,Bot*
G04 #@! TF.FilePolarity,Positive*
%FSLAX46Y46*%
G04 Gerber Fmt 4.6, Leading zero omitted, Abs format (unit mm)*
G04 Created by KiCad (PCBNEW 6.0.11+dfsg-1~bpo11+1) date 2023-03-27 12:03:20*
%MOMM*%
%LPD*%
G01*
G04 APERTURE LIST*
%ADD10C,0.250000*%
%ADD11C,0.187500*%
G04 APERTURE END LIST*
D10*
X149141417Y-72176331D02*
X149474750Y-72176331D01*
X149474750Y-72700140D02*
X149474750Y-71700140D01*
X148998560Y-71700140D01*
X148141417Y-72700140D02*
X148617607Y-72700140D01*
X148617607Y-71700140D01*
X147950940Y-71700140D02*
X147379512Y-71700140D01*
X147665226Y-72700140D02*
X147665226Y-71700140D01*
D11*
X151118788Y-70768405D02*
X151118788Y-70018405D01*
X150940217Y-70018405D01*
X150833074Y-70054120D01*
X150761645Y-70125548D01*
X150725931Y-70196977D01*
X150690217Y-70339834D01*
X150690217Y-70446977D01*
X150725931Y-70589834D01*
X150761645Y-70661262D01*
X150833074Y-70732691D01*
X150940217Y-70768405D01*
X151118788Y-70768405D01*
X150404502Y-70732691D02*
X150297360Y-70768405D01*
X150118788Y-70768405D01*
X150047360Y-70732691D01*
X150011645Y-70696977D01*
X149975931Y-70625548D01*
X149975931Y-70554120D01*
X150011645Y-70482691D01*
X150047360Y-70446977D01*
X150118788Y-70411262D01*
X150261645Y-70375548D01*
X150333074Y-70339834D01*
X150368788Y-70304120D01*
X150404502Y-70232691D01*
X150404502Y-70161262D01*
X150368788Y-70089834D01*
X150333074Y-70054120D01*
X150261645Y-70018405D01*
X150083074Y-70018405D01*
X149975931Y-70054120D01*
X149654502Y-70768405D02*
X149654502Y-70268405D01*
X149654502Y-70018405D02*
X149690217Y-70054120D01*
X149654502Y-70089834D01*
X149618788Y-70054120D01*
X149654502Y-70018405D01*
X149654502Y-70089834D01*
X148761645Y-69982691D02*
X149404502Y-70946977D01*
X148511645Y-70768405D02*
X148511645Y-70018405D01*
X148333074Y-70018405D01*
X148225931Y-70054120D01*
X148154502Y-70125548D01*
X148118788Y-70196977D01*
X148083074Y-70339834D01*
X148083074Y-70446977D01*
X148118788Y-70589834D01*
X148154502Y-70661262D01*
X148225931Y-70732691D01*
X148333074Y-70768405D01*
X148511645Y-70768405D01*
X147797360Y-70732691D02*
X147690217Y-70768405D01*
X147511645Y-70768405D01*
X147440217Y-70732691D01*
X147404502Y-70696977D01*
X147368788Y-70625548D01*
X147368788Y-70554120D01*
X147404502Y-70482691D01*
X147440217Y-70446977D01*
X147511645Y-70411262D01*
X147654502Y-70375548D01*
X147725931Y-70339834D01*
X147761645Y-70304120D01*
X147797360Y-70232691D01*
X147797360Y-70161262D01*
X147761645Y-70089834D01*
X147725931Y-70054120D01*
X147654502Y-70018405D01*
X147475931Y-70018405D01*
X147368788Y-70054120D01*
X147047360Y-70768405D02*
X147047360Y-70268405D01*
X147047360Y-70018405D02*
X147083074Y-70054120D01*
X147047360Y-70089834D01*
X147011645Y-70054120D01*
X147047360Y-70018405D01*
X147047360Y-70089834D01*
X146761645Y-70018405D02*
X146261645Y-70768405D01*
X146261645Y-70018405D02*
X146761645Y-70768405D01*
X145618788Y-70768405D02*
X145975931Y-70768405D01*
X145975931Y-70018405D01*
D10*
X150565217Y-73666100D02*
X150565217Y-74475624D01*
X150517598Y-74570862D01*
X150469979Y-74618481D01*
X150374740Y-74666100D01*
X150184264Y-74666100D01*
X150089026Y-74618481D01*
X150041407Y-74570862D01*
X149993788Y-74475624D01*
X149993788Y-73666100D01*
X149565217Y-74618481D02*
X149422360Y-74666100D01*
X149184264Y-74666100D01*
X149089026Y-74618481D01*
X149041407Y-74570862D01*
X148993788Y-74475624D01*
X148993788Y-74380386D01*
X149041407Y-74285148D01*
X149089026Y-74237529D01*
X149184264Y-74189910D01*
X149374740Y-74142291D01*
X149469979Y-74094672D01*
X149517598Y-74047053D01*
X149565217Y-73951815D01*
X149565217Y-73856577D01*
X149517598Y-73761339D01*
X149469979Y-73713720D01*
X149374740Y-73666100D01*
X149136645Y-73666100D01*
X148993788Y-73713720D01*
X148231883Y-74142291D02*
X148089026Y-74189910D01*
X148041407Y-74237529D01*
X147993788Y-74332767D01*
X147993788Y-74475624D01*
X148041407Y-74570862D01*
X148089026Y-74618481D01*
X148184264Y-74666100D01*
X148565217Y-74666100D01*
X148565217Y-73666100D01*
X148231883Y-73666100D01*
X148136645Y-73713720D01*
X148089026Y-73761339D01*
X148041407Y-73856577D01*
X148041407Y-73951815D01*
X148089026Y-74047053D01*
X148136645Y-74094672D01*
X148231883Y-74142291D01*
X148565217Y-74142291D01*
X147803312Y-74761339D02*
X147041407Y-74761339D01*
X146231883Y-74570862D02*
X146279502Y-74618481D01*
X146422360Y-74666100D01*
X146517598Y-74666100D01*
X146660455Y-74618481D01*
X146755693Y-74523243D01*
X146803312Y-74428005D01*
X146850931Y-74237529D01*
X146850931Y-74094672D01*
X146803312Y-73904196D01*
X146755693Y-73808958D01*
X146660455Y-73713720D01*
X146517598Y-73666100D01*
X146422360Y-73666100D01*
X146279502Y-73713720D01*
X146231883Y-73761339D01*
M02*
